<?xml version="1.0" encoding="utf-8"?>
<!-- Generator: Adobe Illustrator 16.0.0, SVG Export Plug-In . SVG Version: 6.00 Build 0)  -->
<!DOCTYPE svg PUBLIC "-//W3C//DTD SVG 1.1//EN" "http://www.w3.org/Graphics/SVG/1.1/DTD/svg11.dtd">
<svg version="1.1" id="Layer_1" xmlns="http://www.w3.org/2000/svg" xmlns:xlink="http://www.w3.org/1999/xlink" x="0px" y="0px"
	 width="14400px" height="14400px" viewBox="0 0 14400 14400" enable-background="new 0 0 14400 14400" xml:space="preserve">
<g id="_837681024">
	<path fill="#F2F2F2" d="M7194.653,7326.465c1.097,0,2.014,0.186,3.109,0.367l-4.938,27.244l13.714-23.592
		c4.939,3.66,8.228,9.514,8.228,16.098c0,11.154-9.14,20.113-20.112,20.113c-11.153,0-20.114-8.959-20.114-20.113
		C7174.539,7335.424,7183.5,7326.465,7194.653,7326.465z M7191.728,7276.182h21.029c11.156,0,20.114,9.141,20.114,20.107l0,0
		c0,10.428-7.861,19.027-17.915,19.934l0.364-0.732L7191.728,7276.182z M7197.946,7316.412h-21.577
		c-10.975,0-20.116-8.967-20.116-20.123l0,0c0-8.592,5.667-16.09,13.349-18.828L7197.946,7316.412z M7139.979,7226.074h54.31
		l-33.646,39.314l0.729,0.914h-21.394c-10.97,0-19.932-9.141-19.932-20.107l0,0
		C7120.046,7235.221,7129.009,7226.074,7139.979,7226.074z M7241.099,7226.074h8.052c10.967,0,20.107,9.146,20.107,20.121l0,0
		c0,10.967-9.141,20.107-20.107,20.107h-63.458l-0.183-0.182L7241.099,7226.074z M7106.15,7175.97h30.72l-16.275,40.231h-14.445
		c-10.972,0-20.115-9.14-20.115-20.114l0,0C7086.035,7184.933,7095.178,7175.97,7106.15,7175.97z M7207.27,7175.97h75.709
		c11.15,0,20.11,8.962,20.11,20.117l0,0c0,10.975-8.96,20.114-20.11,20.114h-118.68L7207.27,7175.97z M7070.311,7125.867h86.674
		l-16.092,40.048h-70.582c-11.157,0-20.116-8.962-20.116-19.933l0,0C7050.195,7134.828,7059.153,7125.867,7070.311,7125.867z
		 M7260.848,7125.867H7319c10.975,0,20.108,8.96,20.108,20.115l0,0c0,10.971-9.134,19.933-20.108,19.933h-101.121L7260.848,7125.867
		z"/>
	<path fill="#F2F2F2" d="M7065.372,7031.147v78.63h-20.481v-33.1h-6.035v33.1h-20.481v-78.63h20.481v27.978h6.035v-27.978H7065.372z
		 M7120.229,7077.227c0,7.862-0.182,13.349-0.546,16.641c-0.366,3.291-1.462,6.4-3.476,9.144c-2.012,2.745-4.569,4.754-8.044,6.215
		c-3.291,1.463-7.131,2.194-11.521,2.194c-4.206,0-8.044-0.73-11.336-2.013c-3.292-1.461-6.036-3.47-8.045-6.213
		c-2.013-2.745-3.291-5.853-3.656-8.96c-0.369-3.293-0.551-8.96-0.551-17.008v-13.531c0-7.863,0.182-13.532,0.551-16.824
		c0.365-3.292,1.461-6.217,3.475-8.958c1.826-2.744,4.57-4.757,7.862-6.219c3.291-1.464,7.313-2.195,11.702-2.195
		c4.208,0,7.865,0.731,11.339,2.013c3.292,1.461,6.032,3.475,8.044,6.218c2.014,2.74,3.292,5.667,3.658,8.958
		c0.364,3.292,0.546,8.961,0.546,17.006V7077.227z M7099.749,7051.262c0-3.478-0.182-5.852-0.548-6.948
		c-0.548-0.917-1.278-1.465-2.56-1.465c-0.914,0-1.828,0.365-2.375,1.279c-0.551,0.733-0.734,3.108-0.734,7.133v36.753
		c0,4.575,0.183,7.314,0.552,8.413c0.364,1.095,1.095,1.644,2.557,1.644c1.282,0,2.195-0.549,2.56-1.828
		c0.366-1.282,0.548-4.208,0.548-8.777V7051.262z M7127.909,7031.147h20.297c6.401,0,11.34,0.365,14.632,1.462
		c3.292,0.913,6.032,2.925,8.044,6.035c2.013,3.108,3.11,8.045,3.11,14.81c0,4.574-0.732,7.862-2.197,9.51
		c-1.461,1.83-4.387,3.291-8.592,4.206c4.753,1.096,8.045,2.925,9.692,5.303c1.645,2.559,2.558,6.401,2.558,11.519v7.316
		c0,5.304-0.548,9.142-1.827,11.704c-1.282,2.557-3.109,4.39-5.853,5.302c-2.56,0.914-8.044,1.465-16.274,1.465h-23.589V7031.147z
		 M7148.389,7044.497v17.554c0.917,0,1.465-0.183,2.013-0.183c2.013,0,3.292-0.368,3.658-1.464c0.548-0.914,0.913-3.839,0.913-8.41
		c0-2.561-0.183-4.209-0.731-5.122c-0.365-1.096-0.914-1.645-1.644-2.01C7151.863,7044.679,7150.401,7044.497,7148.389,7044.497z
		 M7148.389,7074.3v21.945c2.744,0,4.574-0.551,5.487-1.282c0.731-0.914,1.096-2.926,1.096-6.032v-7.316
		c0-3.475-0.365-5.484-1.096-6.215C7153.145,7074.667,7151.315,7074.3,7148.389,7074.3z M7229.394,7077.227
		c0,7.862-0.176,13.349-0.541,16.641c-0.366,3.291-1.463,6.4-3.478,9.144c-2.017,2.745-4.574,4.754-7.862,6.215
		c-3.478,1.463-7.314,2.194-11.705,2.194c-4.204,0-8.045-0.73-11.336-2.013c-3.292-1.461-6.035-3.47-8.045-6.213
		c-2.013-2.745-3.292-5.853-3.657-8.96c-0.368-3.293-0.551-8.96-0.551-17.008v-13.531c0-7.863,0.183-13.532,0.551-16.824
		c0.365-3.292,1.462-6.217,3.474-8.958c2.01-2.744,4.571-4.757,7.863-6.219c3.475-1.464,7.313-2.195,11.701-2.195
		c4.208,0,8.052,0.731,11.339,2.013c3.289,1.461,6.036,3.475,8.045,6.218c2.01,2.74,3.295,5.667,3.661,8.958
		c0.365,3.292,0.541,8.961,0.541,17.006V7077.227z M7208.92,7051.262c0-3.478-0.189-5.852-0.555-6.948
		c-0.365-0.917-1.272-1.465-2.374-1.465c-1.098,0-1.828,0.365-2.559,1.279c-0.548,0.733-0.736,3.108-0.736,7.133v36.753
		c0,4.575,0.188,7.314,0.554,8.413c0.365,1.095,1.279,1.644,2.558,1.644c1.285,0,2.192-0.549,2.558-1.828
		c0.365-1.282,0.555-4.208,0.555-8.777V7051.262z M7284.807,7091.308c0,5.851-0.73,10.056-2.382,12.616
		c-1.461,2.562-3.837,4.207-6.942,4.756c-3.111,0.729-7.869,1.099-14.635,1.099h-23.769v-78.63h40.041v13.531h-19.566v13.35h3.294
		c6.219,0,10.975,0.365,14.27,1.097c3.289,0.729,5.663,2.374,7.308,4.935c1.461,2.561,2.382,6.583,2.382,11.888V7091.308z
		 M7264.319,7088.931v-11.338c0-3.293-0.365-5.302-1.096-6.036c-0.542-0.73-2.558-1.096-5.67-1.279v25.967
		c2.563,0,4.396-0.366,5.304-1.099C7263.778,7094.599,7264.319,7092.405,7264.319,7088.931z M7332.534,7031.147l-5.67,51.931
		c-0.921,8.229-1.828,14.081-2.748,17.371c-1.096,3.293-3.105,5.671-5.846,7.133c-2.93,1.461-7.686,2.196-14.263,2.196h-11.888
		v-10.24h1.279c2.558,0,4.207-0.182,4.939-0.548c0.548-0.551,0.912-1.101,0.912-2.014c0-0.181-0.364-2.377-1.102-6.765
		l-10.786-59.063h17.74l6.4,49.004l3.106-49.004H7332.534z M7336.552,7031.147h20.664c5.486,0,9.689,0.365,12.801,1.279
		c2.923,0.913,5.122,2.013,6.765,3.657c1.463,1.647,2.559,3.656,2.925,6.035c0.553,2.378,0.919,6.036,0.919,10.971v6.766
		c0,5.122-0.555,8.778-1.652,10.971c-0.906,2.378-2.922,4.022-5.667,5.304c-2.741,1.28-6.4,1.828-10.786,1.828h-5.481v31.82h-20.486
		V7031.147z M7357.038,7044.497v20.112c0.542,0,1.098,0,1.464,0c1.825,0,3.104-0.548,3.834-1.461
		c0.732-0.915,1.098-2.744,1.098-5.67v-6.583c0-2.558-0.365-4.388-1.278-5.119
		C7361.424,7044.862,7359.595,7044.497,7357.038,7044.497z"/>
</g>
</svg>
